<svg width="137" height="36" xmlns="http://www.w3.org/2000/svg"><g fill="none" fill-rule="evenodd"><rect fill="#31BCAD" width="36" height="36" rx="6"/><g fill="#FFF"><path d="M13.206 4.866a.845.845 0 0 1 .696-.366h1.027l-.277.457-.745 1.232-.479.79h-1.5l1.278-2.113zm.871 10.224c2.09.774 3.353.648 3.353.648v1.384s-2.32.075-4.196-.926c-1.8-.96-2.555-2.41-2.91-2.956-.366-.563 1.211-.894 1.211-.894s.768 2.086 2.542 2.744z"/><path d="M5.063 15.563v1.343c.465 0 2.372-.23 3.957-.929 2.75-1.215 2.8-3.55 2.8-4.539H10.5c-.01.834-.448 2.716-2.367 3.406-1.8.647-2.881.71-3.07.719z"/><path d="M5.063 13.689h12.37v-1.315H5.063zm.375-6.375h11.437V6.002H5.438zm.568 1.876h10.496V7.876H6.006zm-.943 2.06H17.44V9.936H5.062z"/><path d="M10.502 10.627h1.314V6.932h-1.314z"/><path d="M9.237 4.866a.842.842 0 0 0-.695-.366H7.514l.278.457.745 1.232.478.79h1.501L9.237 4.867zM29.25 15.345a.402.402 0 0 1-.398.406h-8.42l.002-9.564h8.818l-.002 9.158zM19.316 4.873v12.18H29.35c.671 0 1.21-.55 1.21-1.23V4.873H19.316z"/><path d="M21.003 9.375h7.685v-1.31h-7.685z"/><path d="M25.997 10.431l-4.249 3.788V12.6l4.25-3.788z"/><path d="M25.878 6.751l-.005 6.845v.078a.201.201 0 0 1-.199.203h-.063l-1.607.001-.004 1.31h2.416-.054a.842.842 0 0 0 .816-.834l.01-7.603a52.236 52.236 0 0 0-1.31 0zM26.628 18.75h1.505v2.714c0 3.697.988 6.95 3.367 8.344v1.486c-1.994-.928-3.49-2.351-4.122-5.036-.75 2.83-2.58 4.383-3.935 5.055v-1.52c2.28-1.653 3.185-3.912 3.185-8.33V18.75zm-1.959 6.064c.31 2.409-1.022 3.113-1.982 3.113h-.751l.003-1.122h.686c.684 0 1.1-.907.913-1.991-.128-.627-.243-.833-.85-1.572l.566-2.99H21.01v.177l-.012 10.866h-1.311l.011-12.35 4.862-.015v1.322l-.552 2.99c.536.811.61 1.142.66 1.572zM12.753 18.75h-1.317v2.074h-2.25v1.312h2.25v2.057H9.569v1.313h1.867v2.059h-2.24v1.315h2.24v2.433h1.317V18.75zm1.118 0h1.317v2.074h2.25v1.312h-2.25v2.057h1.867v1.313h-1.867v2.059h2.24v1.315h-2.24v2.433h-1.317V18.75zm-6.186 5.408l.874-.712v1.805l-.874.712v4.246c0 .734-.378 1.1-1.133 1.1H5.065l.005-1.297h.939c.288 0 .372 0 .372-.38v-2.607l-1.318 1.074v-1.806l1.318-1.074v-3.075H5.065v-1.32h1.316v-2.057h1.304v2.057h.941v1.32h-.941v2.014z"/></g><g fill="#31BCAD"><path d="M58.779 2.44c.184-.265.49-.44.836-.44h1.233l-.333.55-.895 1.482-.574.951h-1.802l1.535-2.542zm1.045 12.3c2.51.931 4.027.78 4.027.78v1.664s-2.786.09-5.039-1.114c-2.162-1.155-3.067-2.898-3.494-3.556-.439-.677 1.454-1.075 1.454-1.075s.922 2.509 3.052 3.3z"/><path d="M49 15.309v1.615c.56 0 2.849-.276 4.752-1.117 3.303-1.462 3.361-4.272 3.361-5.46h-1.585c-.01 1.002-.537 3.267-2.84 4.097-2.163.778-3.46.854-3.688.865z"/><path d="M49 13.054h14.854v-1.582H49zm.45-7.669h13.735V3.807H49.45zm.683 2.256h12.604V6.062H50.133zM49 10.12h14.863V8.54H49z"/><path d="M55.532 9.37h1.577V4.925h-1.577z"/><path d="M54.013 2.44a1.01 1.01 0 0 0-.835-.44h-1.234l.334.55.894 1.482.575.951h1.802l-1.536-2.542zM78.044 15.062c0 .27-.215.488-.479.488h-10.11l.003-11.506h10.588l-.002 11.018zM66.116 2.464v14.653h12.046c.807 0 1.453-.663 1.453-1.48V2.464h-13.5z"/><path d="M68.141 7.88h9.228V6.304h-9.228z"/><path d="M74.138 9.15l-5.102 4.557v-1.95l5.102-4.556z"/><path d="M73.995 4.723l-.006 8.234v.094a.242.242 0 0 1-.239.244h-.076l-1.93.002-.004 1.576h2.901l-.065-.001c.536-.01.97-.454.98-1.003l.013-9.146a62.608 62.608 0 0 0-1.574 0zM107.046 2.3h1.808v3.265c0 4.449 1.185 8.361 4.042 10.039v1.788c-2.394-1.117-4.19-2.83-4.95-6.06-.9 3.405-3.097 5.274-4.724 6.082v-1.828c2.737-1.99 3.824-4.706 3.824-10.02V2.3zm-2.352 7.296c.373 2.898-1.228 3.745-2.38 3.745h-.902l.003-1.35h.824c.822 0 1.322-1.092 1.097-2.395-.153-.754-.292-1.002-1.022-1.891l.68-3.597h-2.693v.212l-.014 13.073h-1.575l.015-14.859 5.838-.016v1.59l-.664 3.597c.644.976.733 1.373.793 1.89zM91.016 2.359h-1.582v2.376h-2.7v1.579h2.7v2.475h-2.241v1.579h2.241v2.477h-2.69v1.582h2.69v2.926h1.582V2.36zm1.342 0h1.582v2.376h2.7v1.579h-2.7v2.475h2.241v1.579H93.94v2.477h2.69v1.582h-2.69v2.926h-1.582V2.36zM84.93 8.746l1.05-.857v2.172l-1.05.857v5.107c0 .884-.453 1.325-1.36 1.325h-1.785l.005-1.561h1.128c.346 0 .447 0 .447-.457v-3.137l-1.584 1.292v-2.173l1.584-1.291v-3.7h-1.58V4.736h1.58V2.38h1.565v2.356h1.13v1.589h-1.13v2.422z"/></g><text font-family="PingFangSC-Regular, PingFang SC" font-size="10" letter-spacing="4" fill="#999"><tspan x="48" y="33">让经营更简单</tspan> <tspan x="132" y="33">~</tspan></text></g></svg>